<svg width="322" height="130" viewBox="0 0 322 130" fill="none" xmlns="http://www.w3.org/2000/svg">
<path d="M131 52C142.532 52 152 60.8926 152 71.9998C152 83.1069 142.532 92 131 92C119.467 92 110 83.1069 110 71.9998C110 60.8926 119.467 52 131 52Z" stroke="url(#paint0_linear_402_14)" stroke-width="1.5" stroke-linejoin="round"/>
<path d="M118 52C129.533 52 139 60.8926 139 71.9998C139 83.1069 129.533 92 118 92C106.467 92 97 83.1069 97 71.9998C97 60.8926 106.467 52 118 52Z" stroke="url(#paint1_linear_402_14)" stroke-width="1.5" stroke-linejoin="round"/>
<path d="M118 62C129.533 62 139 70.8931 139 82.0002C139 93.1069 129.533 102 118 102C106.467 102 97 93.1069 97 82.0002C97 70.8931 106.467 62 118 62Z" stroke="url(#paint2_linear_402_14)" stroke-width="1.5" stroke-linejoin="round"/>
<path d="M131 62C142.532 62 152 70.8931 152 82.0002C152 93.1069 142.532 102 131 102C119.467 102 110 93.1069 110 82.0002C110 70.8931 119.467 62 131 62Z" stroke="url(#paint3_linear_402_14)" stroke-width="1.5" stroke-linejoin="round"/>
<path d="M15.62 102C12.6133 102 10.3033 101.34 8.69 100.02C7.15 98.7 6.34333 97.38 6.27 96.06L6.16 94.19V47H13.86V94.19C13.86 96.3167 14.2633 97.9667 15.07 99.14C15.95 100.24 16.7933 100.827 17.6 100.9L18.92 101.12H22.33V102H15.62ZM6.82 34.68C5.94 33.8 5.5 32.7 5.5 31.38C5.5 30.06 5.94 28.96 6.82 28.08C7.7 27.1267 8.8 26.65 10.12 26.65C11.44 26.65 12.54 27.1267 13.42 28.08C14.3733 28.96 14.85 30.06 14.85 31.38C14.85 32.7 14.3733 33.8 13.42 34.68C12.54 35.56 11.44 36 10.12 36C8.8 36 7.7 35.56 6.82 34.68ZM70.228 102.44C56.5147 102.44 46.358 98.5533 39.758 90.78C37.4114 87.9933 35.5047 84.29 34.038 79.67C32.5714 75.05 31.838 69.44 31.838 62.84C31.838 56.24 32.9014 50.3367 35.028 45.13C37.228 39.85 40.198 35.78 43.938 32.92C51.198 27.5667 59.9614 24.89 70.228 24.89C73.1614 24.89 76.0214 25.1467 78.8081 25.66C81.5947 26.1 83.6847 26.5767 85.0781 27.09L87.0581 27.86L86.728 28.96C81.7414 26.98 76.2414 25.99 70.228 25.99C62.4547 25.99 55.9647 28.52 50.758 33.58C46.798 37.32 44.0114 42.82 42.398 50.08C41.4447 54.1867 40.968 59.21 40.968 65.15C40.968 71.09 41.8114 76.59 43.498 81.65C45.1847 86.6367 47.0914 90.34 49.218 92.76C51.418 95.18 54.058 97.1233 57.138 98.59C60.218 99.9833 62.6747 100.79 64.508 101.01C66.3414 101.23 68.5414 101.34 71.108 101.34C73.748 101.34 76.718 101.083 80.0181 100.57C83.3181 100.057 85.8114 99.58 87.4981 99.14L90.0281 98.37L90.358 99.47C84.7847 101.45 78.0747 102.44 70.228 102.44ZM177.111 102C170.658 102 166.588 100.313 164.901 96.94C164.534 96.2067 164.351 95.5467 164.351 94.96V19.61H172.051V94.19C172.051 96.3167 172.454 97.9667 173.261 99.14C174.141 100.24 175.021 100.827 175.901 100.9L177.111 101.12H180.521V102H177.111ZM208.996 102.44C201.296 102.44 195.026 100.24 190.186 95.84C185.346 91.44 182.926 84.6567 182.926 75.49C182.926 66.3233 185.42 59.21 190.406 54.15C195.466 49.09 201.846 46.56 209.546 46.56C217.32 46.56 223.626 48.76 228.466 53.16C233.306 57.56 235.726 64.3433 235.726 73.51C235.726 82.6767 233.196 89.79 228.136 94.85C223.15 99.91 216.77 102.44 208.996 102.44ZM209.766 47.44C204.193 47.44 199.573 49.9333 195.906 54.92C192.24 59.8333 190.406 66.7267 190.406 75.6C190.406 84.4 192.093 90.9267 195.466 95.18C198.84 99.4333 203.313 101.56 208.886 101.56C214.46 101.56 219.08 99.1033 222.746 94.19C226.413 89.2033 228.246 82.31 228.246 73.51C228.246 64.6367 226.56 58.0733 223.186 53.82C219.813 49.5667 215.34 47.44 209.766 47.44ZM262.93 51.73V49.42C259.63 50.74 256.624 53.4167 253.91 57.45C251.197 61.41 249.767 65.15 249.62 68.67V102H241.92V47H249.62V64.49C250.794 60.2367 253.03 56.24 256.33 52.5C259.63 48.6867 263.37 46.7067 267.55 46.56H267.99C269.457 46.56 270.667 47.0733 271.62 48.1C272.647 49.0533 273.16 50.2633 273.16 51.73C273.16 53.1967 272.647 54.4067 271.62 55.36C270.667 56.3133 269.457 56.79 267.99 56.79C266.524 56.79 265.314 56.3133 264.36 55.36C263.407 54.4067 262.93 53.1967 262.93 51.73ZM312.088 50.85C310.914 49.8967 309.008 49.09 306.368 48.43C303.801 47.77 301.858 47.44 300.538 47.44C299.218 47.44 298.448 47.44 298.228 47.44C294.268 47.5133 291.408 48.54 289.648 50.52C287.888 52.4267 287.008 54.59 287.008 57.01C287.008 59.43 287.778 61.4833 289.318 63.17C290.858 64.7833 292.764 66.0667 295.038 67.02C297.384 67.9 299.878 68.9267 302.518 70.1C305.231 71.2733 307.724 72.4833 309.998 73.73C312.344 74.9033 314.288 76.6633 315.828 79.01C317.368 81.2833 318.138 84.1433 318.138 87.59C318.138 91.0367 316.928 93.97 314.508 96.39C312.088 98.81 309.374 100.423 306.368 101.23C303.434 102.037 300.244 102.44 296.798 102.44C289.318 102.44 283.708 100.79 279.968 97.49L280.628 96.83C282.094 98.2233 284.258 99.36 287.118 100.24C290.051 101.12 292.874 101.56 295.588 101.56C299.914 101.56 303.471 100.387 306.258 98.04C309.118 95.62 310.548 92.65 310.548 89.13C310.548 85.5367 309.484 82.6767 307.358 80.55C305.231 78.35 302.628 76.6633 299.548 75.49C296.541 74.2433 293.498 73.0333 290.418 71.86C287.338 70.6133 284.734 68.9267 282.608 66.8C280.481 64.6 279.418 62.07 279.418 59.21C279.418 56.35 280.078 54.04 281.398 52.28C282.718 50.4467 284.478 49.1633 286.678 48.43C290.418 47.1833 294.158 46.56 297.898 46.56C304.204 46.56 309.118 47.7333 312.638 50.08L312.088 50.85Z" fill="url(#paint4_linear_402_14)"/>
<defs>
<linearGradient id="paint0_linear_402_14" x1="107.511" y1="71.9998" x2="154.489" y2="71.9998" gradientUnits="userSpaceOnUse">
<stop stop-color="#804BD1"/>
<stop offset="1" stop-color="#4994D4" stop-opacity="0.8"/>
</linearGradient>
<linearGradient id="paint1_linear_402_14" x1="94.5113" y1="71.9998" x2="141.489" y2="71.9998" gradientUnits="userSpaceOnUse">
<stop stop-color="#804BD1"/>
<stop offset="1" stop-color="#4994D4" stop-opacity="0.8"/>
</linearGradient>
<linearGradient id="paint2_linear_402_14" x1="94.5113" y1="82.0002" x2="141.489" y2="82.0002" gradientUnits="userSpaceOnUse">
<stop stop-color="#804BD1"/>
<stop offset="1" stop-color="#4994D4" stop-opacity="0.8"/>
</linearGradient>
<linearGradient id="paint3_linear_402_14" x1="107.511" y1="82.0002" x2="154.489" y2="82.0002" gradientUnits="userSpaceOnUse">
<stop stop-color="#804BD1"/>
<stop offset="1" stop-color="#4994D4" stop-opacity="0.8"/>
</linearGradient>
<linearGradient id="paint4_linear_402_14" x1="306.059" y1="65" x2="1.13986e-06" y2="65" gradientUnits="userSpaceOnUse">
<stop stop-color="#4994D4"/>
<stop offset="1" stop-color="#804BD1"/>
</linearGradient>
</defs>
</svg>
